<svg width="410" height="71" viewBox="0 0 410 71" fill="none" xmlns="http://www.w3.org/2000/svg">
<g filter="url(#filter0_d_579_3976)">
<path d="M59.1487 35.136H60.5167C60.7327 35.136 60.8767 35.1 60.9487 35.028C61.0447 34.932 61.0927 34.776 61.0927 34.56V20.376C61.0927 20.16 61.0447 20.016 60.9487 19.944C60.8767 19.848 60.7327 19.8 60.5167 19.8H59.1487V18.936H65.2687V22.5L65.4487 22.536C66.5287 19.848 68.0287 18.504 69.9487 18.504C71.4367 18.504 72.4687 18.876 73.0447 19.62C73.6447 20.364 74.0527 21.312 74.2687 22.464H74.4487C74.8807 21.24 75.4687 20.28 76.2127 19.584C76.9807 18.864 77.8087 18.504 78.6967 18.504C79.2967 18.504 79.8127 18.576 80.2447 18.72C80.6767 18.84 81.0847 19.032 81.4687 19.296C82.0687 19.728 82.5367 20.328 82.8727 21.096C83.2327 21.864 83.4127 22.656 83.4127 23.472V34.56C83.4127 34.776 83.4487 34.932 83.5207 35.028C83.6167 35.1 83.7727 35.136 83.9887 35.136H85.3567V36H77.5087V35.136H78.6607C78.8767 35.136 79.0207 35.1 79.0927 35.028C79.1887 34.932 79.2367 34.776 79.2367 34.56V22.428C79.2367 20.58 78.6847 19.656 77.5807 19.656C77.0767 19.656 76.5727 19.992 76.0687 20.664C75.5647 21.312 75.1447 22.2 74.8087 23.328C74.4967 24.432 74.3407 25.608 74.3407 26.856V34.56C74.3407 34.776 74.3767 34.932 74.4487 35.028C74.5447 35.1 74.7007 35.136 74.9167 35.136H76.0687V36H68.4367V35.136H69.5887C69.8047 35.136 69.9487 35.1 70.0207 35.028C70.1167 34.932 70.1647 34.776 70.1647 34.56V21.78C70.1647 21.06 70.0807 20.532 69.9127 20.196C69.7447 19.836 69.3727 19.656 68.7967 19.656C68.2927 19.656 67.7647 19.992 67.2127 20.664C66.6607 21.336 66.1927 22.224 65.8087 23.328C65.4487 24.432 65.2687 25.608 65.2687 26.856V34.56C65.2687 34.776 65.3047 34.932 65.3767 35.028C65.4727 35.1 65.6287 35.136 65.8447 35.136H66.9967V36H59.1487V35.136ZM93.6296 36.432C92.3096 36.432 91.1816 36.108 90.2456 35.46C89.3336 34.812 88.8776 33.72 88.8776 32.184C88.8776 30.624 89.4416 29.4 90.5696 28.512C91.7216 27.6 93.1736 26.844 94.9256 26.244L97.5896 25.308V22.86C97.5896 21.636 97.3376 20.748 96.8336 20.196C96.3296 19.644 95.6816 19.368 94.8896 19.368C94.2176 19.368 93.6296 19.524 93.1256 19.836C92.6456 20.124 92.4056 20.532 92.4056 21.06C92.4056 21.204 92.4416 21.384 92.5136 21.6C92.6096 21.792 92.7656 21.96 92.9816 22.104C93.3416 22.32 93.5936 22.548 93.7376 22.788C93.9056 23.028 93.9896 23.34 93.9896 23.724C93.9896 24.3 93.7736 24.756 93.3416 25.092C92.9336 25.404 92.4776 25.56 91.9736 25.56C91.3496 25.56 90.8096 25.356 90.3536 24.948C89.9216 24.516 89.7056 23.904 89.7056 23.112C89.7056 22.2 89.9816 21.396 90.5336 20.7C91.0856 19.98 91.7936 19.44 92.6576 19.08C93.5216 18.696 94.3976 18.504 95.2856 18.504C97.0136 18.504 98.5256 18.972 99.8216 19.908C101.118 20.82 101.766 22.284 101.766 24.3V33.408C101.766 34.272 102.006 34.704 102.486 34.704C102.918 34.704 103.242 34.344 103.458 33.624C103.674 32.904 103.782 32.076 103.782 31.14H104.79C104.79 32.892 104.526 34.176 103.998 34.992C103.734 35.424 103.362 35.772 102.882 36.036C102.402 36.3 101.85 36.432 101.226 36.432C100.242 36.432 99.4976 36.288 98.9936 36C98.4896 35.688 98.0696 35.184 97.7336 34.488H97.6616C96.7016 35.784 95.3576 36.432 93.6296 36.432ZM95.3936 34.992C96.3296 34.992 97.0616 34.464 97.5896 33.408V26.28L95.5736 27C94.7816 27.288 94.1936 27.84 93.8096 28.656C93.4496 29.448 93.2696 30.516 93.2696 31.86C93.2696 33.036 93.4856 33.852 93.9176 34.308C94.3496 34.764 94.8416 34.992 95.3936 34.992ZM115.727 44.568C113.495 44.568 111.599 44.172 110.039 43.38C108.503 42.588 107.735 41.496 107.735 40.104C107.735 39.312 108.035 38.58 108.635 37.908C109.235 37.26 110.063 36.816 111.119 36.576V36.468C110.399 36.42 109.751 36.12 109.175 35.568C108.599 35.016 108.311 34.332 108.311 33.516C108.311 31.236 109.655 29.832 112.343 29.304V29.16C111.407 28.752 110.579 28.128 109.859 27.288C109.163 26.448 108.815 25.392 108.815 24.12C108.815 23.04 109.115 22.068 109.715 21.204C110.339 20.34 111.143 19.68 112.127 19.224C113.135 18.744 114.215 18.504 115.367 18.504C117.335 18.504 119.003 19.128 120.371 20.376H120.479C121.223 19.128 122.111 18.504 123.143 18.504C123.911 18.504 124.535 18.744 125.015 19.224C125.495 19.68 125.735 20.232 125.735 20.88C125.735 21.6 125.531 22.224 125.123 22.752C124.739 23.28 124.271 23.544 123.719 23.544C123.335 23.544 122.999 23.436 122.711 23.22C122.423 22.98 122.279 22.668 122.279 22.284C122.279 21.9 122.471 21.468 122.855 20.988C122.999 20.844 123.131 20.676 123.251 20.484C123.371 20.292 123.431 20.124 123.431 19.98C123.431 19.596 123.179 19.404 122.675 19.404C122.027 19.404 121.415 19.908 120.839 20.916C121.607 21.756 121.991 22.92 121.991 24.408C121.991 25.272 121.715 26.124 121.163 26.964C120.611 27.78 119.819 28.452 118.787 28.98C117.779 29.508 116.615 29.772 115.295 29.772C113.831 29.772 112.655 29.904 111.767 30.168C110.879 30.408 110.435 30.912 110.435 31.68C110.435 32.52 111.023 32.94 112.199 32.94H117.887C119.591 32.94 121.007 33.348 122.135 34.164C123.263 34.98 123.827 36.204 123.827 37.836C123.827 39.036 123.503 40.14 122.855 41.148C122.207 42.18 121.271 43.008 120.047 43.632C118.823 44.256 117.383 44.568 115.727 44.568ZM115.439 28.872C116.207 28.872 116.759 28.5 117.095 27.756C117.431 26.988 117.599 25.776 117.599 24.12C117.599 22.464 117.431 21.264 117.095 20.52C116.759 19.752 116.207 19.368 115.439 19.368C114.647 19.368 114.071 19.752 113.711 20.52C113.375 21.264 113.207 22.464 113.207 24.12C113.207 25.776 113.375 26.988 113.711 27.756C114.071 28.5 114.647 28.872 115.439 28.872ZM115.187 43.416C116.843 43.416 118.295 43.08 119.543 42.408C120.791 41.736 121.415 40.776 121.415 39.528C121.415 38.616 120.911 37.956 119.903 37.548C118.895 37.164 117.611 36.972 116.051 36.972C114.203 36.972 112.571 37.188 111.155 37.62C109.739 38.076 109.031 38.916 109.031 40.14C109.031 41.196 109.643 42 110.867 42.552C112.115 43.128 113.555 43.416 115.187 43.416ZM133.284 36.432C131.964 36.432 130.836 36.108 129.9 35.46C128.988 34.812 128.532 33.72 128.532 32.184C128.532 30.624 129.096 29.4 130.224 28.512C131.376 27.6 132.828 26.844 134.58 26.244L137.244 25.308V22.86C137.244 21.636 136.992 20.748 136.488 20.196C135.984 19.644 135.336 19.368 134.544 19.368C133.872 19.368 133.284 19.524 132.78 19.836C132.3 20.124 132.06 20.532 132.06 21.06C132.06 21.204 132.096 21.384 132.168 21.6C132.264 21.792 132.42 21.96 132.636 22.104C132.996 22.32 133.248 22.548 133.392 22.788C133.56 23.028 133.644 23.34 133.644 23.724C133.644 24.3 133.428 24.756 132.996 25.092C132.588 25.404 132.132 25.56 131.628 25.56C131.004 25.56 130.464 25.356 130.008 24.948C129.576 24.516 129.36 23.904 129.36 23.112C129.36 22.2 129.636 21.396 130.188 20.7C130.74 19.98 131.448 19.44 132.312 19.08C133.176 18.696 134.052 18.504 134.94 18.504C136.668 18.504 138.18 18.972 139.476 19.908C140.772 20.82 141.42 22.284 141.42 24.3V33.408C141.42 34.272 141.66 34.704 142.14 34.704C142.572 34.704 142.896 34.344 143.112 33.624C143.328 32.904 143.436 32.076 143.436 31.14H144.444C144.444 32.892 144.18 34.176 143.652 34.992C143.388 35.424 143.016 35.772 142.536 36.036C142.056 36.3 141.504 36.432 140.88 36.432C139.896 36.432 139.152 36.288 138.648 36C138.144 35.688 137.724 35.184 137.388 34.488H137.316C136.356 35.784 135.012 36.432 133.284 36.432ZM135.048 34.992C135.984 34.992 136.716 34.464 137.244 33.408V26.28L135.228 27C134.436 27.288 133.848 27.84 133.464 28.656C133.104 29.448 132.924 30.516 132.924 31.86C132.924 33.036 133.14 33.852 133.572 34.308C134.004 34.764 134.496 34.992 135.048 34.992ZM147.03 35.064L156.03 19.8H153.582C152.142 19.8 151.014 20.424 150.198 21.672C149.766 22.344 149.442 23.076 149.226 23.868C149.01 24.636 148.902 25.104 148.902 25.272H148.038L148.254 18.936H160.782V19.656L151.638 35.136H154.734C155.598 35.136 156.426 34.812 157.218 34.164C158.034 33.516 158.646 32.736 159.054 31.824C159.366 31.2 159.57 30.552 159.666 29.88C159.786 29.208 159.846 28.752 159.846 28.512H160.71L160.494 36H147.03V35.064ZM168.484 15.264C167.74 15.264 167.104 15.012 166.576 14.508C166.072 13.98 165.82 13.344 165.82 12.6C165.82 11.832 166.072 11.196 166.576 10.692C167.104 10.188 167.74 9.936 168.484 9.936C169.252 9.936 169.888 10.188 170.392 10.692C170.896 11.196 171.148 11.832 171.148 12.6C171.148 13.344 170.896 13.98 170.392 14.508C169.888 15.012 169.252 15.264 168.484 15.264ZM164.596 35.136H165.964C166.18 35.136 166.324 35.1 166.396 35.028C166.492 34.932 166.54 34.776 166.54 34.56V20.376C166.54 20.16 166.492 20.016 166.396 19.944C166.324 19.848 166.18 19.8 165.964 19.8H164.596V18.936H170.716V34.56C170.716 34.776 170.752 34.932 170.824 35.028C170.92 35.1 171.076 35.136 171.292 35.136H172.66V36H164.596V35.136ZM175.969 35.136H177.337C177.553 35.136 177.697 35.1 177.769 35.028C177.865 34.932 177.913 34.776 177.913 34.56V20.376C177.913 20.16 177.865 20.016 177.769 19.944C177.697 19.848 177.553 19.8 177.337 19.8H175.969V18.936H182.089V22.14L182.269 22.176C182.749 21.048 183.361 20.16 184.105 19.512C184.873 18.84 185.749 18.504 186.733 18.504C187.333 18.504 187.849 18.576 188.281 18.72C188.713 18.84 189.121 19.032 189.505 19.296C190.105 19.728 190.573 20.328 190.909 21.096C191.269 21.864 191.449 22.656 191.449 23.472V34.56C191.449 34.776 191.485 34.932 191.557 35.028C191.653 35.1 191.809 35.136 192.025 35.136H193.393V36H185.545V35.136H186.697C186.913 35.136 187.057 35.1 187.129 35.028C187.225 34.932 187.273 34.776 187.273 34.56V22.428C187.273 20.58 186.721 19.656 185.617 19.656C185.113 19.656 184.585 19.992 184.033 20.664C183.481 21.336 183.013 22.224 182.629 23.328C182.269 24.432 182.089 25.608 182.089 26.856V34.56C182.089 34.776 182.125 34.932 182.197 35.028C182.293 35.1 182.449 35.136 182.665 35.136H183.817V36H175.969V35.136ZM204.649 36.432C203.161 36.432 201.829 36.036 200.653 35.244C199.501 34.428 198.601 33.336 197.953 31.968C197.305 30.6 196.981 29.1 196.981 27.468C196.981 25.788 197.305 24.264 197.953 22.896C198.601 21.528 199.477 20.46 200.581 19.692C201.709 18.9 202.933 18.504 204.253 18.504C205.717 18.504 206.977 19.032 208.033 20.088C209.089 21.12 209.785 22.488 210.121 24.192C210.289 24.96 210.373 26.16 210.373 27.792H201.589C201.589 28.944 201.613 29.856 201.661 30.528C201.709 31.176 201.817 31.812 201.985 32.436C202.201 33.324 202.609 34.032 203.209 34.56C203.833 35.088 204.553 35.352 205.369 35.352C206.545 35.352 207.493 34.836 208.213 33.804C208.933 32.772 209.365 31.56 209.509 30.168H210.445C210.301 31.824 209.761 33.288 208.825 34.56C207.889 35.808 206.497 36.432 204.649 36.432ZM206.197 26.784C206.197 24.264 206.029 22.404 205.693 21.204C205.381 19.98 204.781 19.368 203.893 19.368C203.005 19.368 202.393 19.98 202.057 21.204C201.745 22.404 201.589 24.264 201.589 26.784H206.197ZM236.255 36.648C235.199 36.648 234.251 36.492 233.411 36.18C232.571 35.892 231.875 35.52 231.323 35.064C230.771 34.656 230.375 34.38 230.135 34.236C229.895 34.068 229.667 33.984 229.451 33.984C228.947 33.984 228.635 34.392 228.515 35.208L228.335 36.36H227.219L227.003 24.984H228.155C228.491 26.808 229.055 28.524 229.847 30.132C230.663 31.74 231.635 33.036 232.763 34.02C233.915 35.004 235.151 35.496 236.471 35.496C238.367 35.496 239.663 35.076 240.359 34.236C241.055 33.396 241.403 32.448 241.403 31.392C241.403 30.768 241.175 30.216 240.719 29.736C240.287 29.232 239.651 28.704 238.811 28.152L231.107 23.184C229.979 22.464 229.019 21.564 228.227 20.484C227.459 19.404 227.075 18.12 227.075 16.632C227.075 14.304 227.747 12.576 229.091 11.448C230.459 10.296 232.139 9.72 234.131 9.72C235.835 9.72 237.539 10.32 239.243 11.52C239.795 11.952 240.227 12.168 240.539 12.168C240.971 12.168 241.235 11.892 241.331 11.34L241.547 10.368H242.699L243.059 19.728H241.907C241.451 18.072 240.815 16.572 239.999 15.228C239.183 13.884 238.235 12.828 237.155 12.06C236.099 11.268 234.995 10.872 233.843 10.872C232.571 10.872 231.623 11.124 230.999 11.628C230.399 12.132 230.099 12.888 230.099 13.896C230.099 15.264 231.167 16.644 233.303 18.036L241.043 23.04C242.027 23.688 242.807 24.576 243.383 25.704C243.983 26.832 244.283 28.008 244.283 29.232C244.283 30.48 243.983 31.668 243.383 32.796C242.783 33.924 241.883 34.848 240.683 35.568C239.483 36.288 238.007 36.648 236.255 36.648ZM253.647 34.848H256.527C256.863 34.848 257.091 34.788 257.211 34.668C257.331 34.524 257.391 34.296 257.391 33.984V12.744C257.391 12.36 257.271 12.06 257.031 11.844C256.791 11.628 256.467 11.52 256.059 11.52C254.931 11.52 253.899 12.144 252.963 13.392C252.027 14.616 251.331 16.056 250.875 17.712C250.611 18.6 250.419 19.356 250.299 19.98C250.203 20.58 250.143 20.952 250.119 21.096H248.967L249.255 10.368H270.855L271.143 21.096H269.991C269.967 20.952 269.895 20.58 269.775 19.98C269.679 19.356 269.499 18.6 269.235 17.712C268.779 16.056 268.083 14.616 267.147 13.392C266.211 12.144 265.179 11.52 264.051 11.52C263.643 11.52 263.319 11.628 263.079 11.844C262.839 12.06 262.719 12.36 262.719 12.744V33.984C262.719 34.296 262.779 34.524 262.899 34.668C263.043 34.788 263.271 34.848 263.583 34.848H266.463V36H253.647V34.848ZM286.473 36.648C284.625 36.648 282.873 36.012 281.217 34.74C279.585 33.468 278.277 31.8 277.293 29.736C276.309 27.648 275.817 25.464 275.817 23.184C275.817 20.904 276.309 18.732 277.293 16.668C278.277 14.58 279.585 12.9 281.217 11.628C282.873 10.356 284.625 9.72 286.473 9.72C288.321 9.72 290.061 10.356 291.693 11.628C293.349 12.9 294.669 14.58 295.653 16.668C296.637 18.732 297.129 20.904 297.129 23.184C297.129 25.464 296.637 27.648 295.653 29.736C294.669 31.8 293.349 33.468 291.693 34.74C290.061 36.012 288.321 36.648 286.473 36.648ZM286.473 35.496C287.937 35.496 289.053 34.968 289.821 33.912C290.613 32.832 291.009 31.056 291.009 28.584V17.784C291.009 15.312 290.613 13.548 289.821 12.492C289.053 11.412 287.937 10.872 286.473 10.872C285.009 10.872 283.881 11.412 283.089 12.492C282.321 13.548 281.937 15.312 281.937 17.784V28.584C281.937 31.056 282.321 32.832 283.089 33.912C283.881 34.968 285.009 35.496 286.473 35.496ZM321.066 36.864C319.53 36.864 318.306 36.408 317.394 35.496C316.506 34.584 316.062 33.24 316.062 31.464V27C316.062 25.848 315.774 24.876 315.198 24.084C314.646 23.292 313.782 22.896 312.606 22.896H310.59V33.984C310.59 34.296 310.65 34.524 310.77 34.668C310.914 34.788 311.142 34.848 311.454 34.848H314.622V36H301.878V34.848H304.398C304.734 34.848 304.962 34.788 305.082 34.668C305.202 34.524 305.262 34.296 305.262 33.984V12.384C305.262 12.048 305.202 11.82 305.082 11.7C304.962 11.58 304.734 11.52 304.398 11.52H301.878V10.368H313.542C316.134 10.368 318.222 10.944 319.806 12.096C321.39 13.224 322.182 14.76 322.182 16.704C322.182 18.36 321.57 19.668 320.346 20.628C319.146 21.588 317.55 22.188 315.558 22.428V22.68C317.43 23.016 318.87 23.688 319.878 24.696C320.886 25.68 321.39 27.228 321.39 29.34V33.336C321.39 34.344 321.726 34.848 322.398 34.848C323.022 34.848 323.478 34.332 323.766 33.3C324.054 32.268 324.198 31.008 324.198 29.52H325.35C325.35 31.848 325.038 33.66 324.414 34.956C323.79 36.228 322.674 36.864 321.066 36.864ZM313.002 21.744C314.274 21.744 315.162 21.276 315.666 20.34C316.17 19.404 316.422 18.096 316.422 16.416C316.422 14.784 316.17 13.56 315.666 12.744C315.162 11.928 314.274 11.52 313.002 11.52H311.454C311.142 11.52 310.914 11.58 310.77 11.7C310.65 11.82 310.59 12.048 310.59 12.384V21.744H313.002ZM333.776 34.848H336.08C336.416 34.848 336.644 34.788 336.764 34.668C336.884 34.524 336.944 34.296 336.944 33.984V26.316L330.824 13.104C330.536 12.504 330.236 12.096 329.924 11.88C329.612 11.64 329.204 11.52 328.7 11.52H327.44V10.368H338.744V11.52H337.736C337.4 11.52 337.148 11.64 336.98 11.88C336.812 12.12 336.728 12.384 336.728 12.672C336.728 13.056 336.8 13.392 336.944 13.68L341.696 24.012L345.008 15.768C345.344 15 345.512 14.316 345.512 13.716C345.512 13.14 345.356 12.636 345.044 12.204C344.732 11.748 344.24 11.52 343.568 11.52H342.56V10.368H351.488V11.52H350.408C349.592 11.52 348.908 11.784 348.356 12.312C347.828 12.816 347.42 13.428 347.132 14.148L342.272 25.992V33.984C342.272 34.296 342.332 34.524 342.452 34.668C342.596 34.788 342.824 34.848 343.136 34.848H345.44V36H333.776V34.848Z" fill="url(#paint0_linear_579_3976)"/>
</g>
<g filter="url(#filter1_d_579_3976)">
<path d="M119.15 55.096C119.066 54.8627 118.959 54.704 118.828 54.62C118.697 54.5267 118.529 54.48 118.324 54.48H117.442V54.032H121.922V54.48H120.998C120.867 54.48 120.755 54.5173 120.662 54.592C120.569 54.6573 120.522 54.7367 120.522 54.83C120.522 54.9327 120.541 55.0353 120.578 55.138L122.972 61.872L124.82 56.188C124.932 55.824 124.988 55.502 124.988 55.222C124.988 55.026 124.932 54.8533 124.82 54.704C124.717 54.5547 124.535 54.48 124.274 54.48H123.518V54.032H127.298V54.48H126.78C126.453 54.48 126.201 54.578 126.024 54.774C125.847 54.9607 125.707 55.2033 125.604 55.502L122.762 64.252H122.412L119.15 55.096ZM132.708 63.552H133.716C133.968 63.552 134.094 63.426 134.094 63.174V54.858C134.094 54.7273 134.062 54.634 133.996 54.578C133.94 54.5127 133.847 54.48 133.716 54.48H132.708V54.032H136.768V54.48H135.76C135.63 54.48 135.532 54.5127 135.466 54.578C135.41 54.634 135.382 54.7273 135.382 54.858V63.174C135.382 63.426 135.508 63.552 135.76 63.552H136.768V64H132.708V63.552ZM146.464 64.252C146.072 64.252 145.685 64.168 145.302 64C144.929 63.8227 144.602 63.6313 144.322 63.426C143.93 63.1273 143.697 62.978 143.622 62.978C143.436 62.978 143.314 63.1787 143.258 63.58L143.202 64.14H142.88L142.782 59.716H143.118C143.174 60.4067 143.366 61.0693 143.692 61.704C144.028 62.3293 144.444 62.838 144.938 63.23C145.433 63.6127 145.942 63.804 146.464 63.804C147.23 63.804 147.785 63.6173 148.13 63.244C148.485 62.8707 148.662 62.4227 148.662 61.9C148.662 61.4427 148.527 61.0833 148.256 60.822C147.995 60.5607 147.608 60.3273 147.094 60.122L144.966 59.268C144.229 58.9693 143.683 58.5867 143.328 58.12C142.983 57.644 142.81 57.0747 142.81 56.412C142.81 55.516 143.072 54.8533 143.594 54.424C144.117 53.9947 144.77 53.78 145.554 53.78C146.17 53.78 146.852 54.06 147.598 54.62C147.692 54.6853 147.785 54.746 147.878 54.802C147.972 54.8487 148.056 54.872 148.13 54.872C148.289 54.872 148.382 54.76 148.41 54.536L148.466 54.032H148.802L148.942 57.672H148.606C148.457 57 148.219 56.4027 147.892 55.88C147.575 55.3573 147.202 54.9513 146.772 54.662C146.343 54.3727 145.9 54.228 145.442 54.228C144.92 54.228 144.49 54.4007 144.154 54.746C143.818 55.082 143.65 55.5533 143.65 56.16C143.65 56.58 143.758 56.9067 143.972 57.14C144.187 57.3733 144.504 57.574 144.924 57.742L147.626 58.82C148.252 59.072 148.718 59.4313 149.026 59.898C149.344 60.3647 149.502 60.8547 149.502 61.368C149.502 61.8627 149.39 62.3293 149.166 62.768C148.952 63.2067 148.616 63.566 148.158 63.846C147.71 64.1167 147.146 64.252 146.464 64.252ZM155.3 63.552H156.308C156.56 63.552 156.686 63.426 156.686 63.174V54.858C156.686 54.7273 156.653 54.634 156.588 54.578C156.532 54.5127 156.439 54.48 156.308 54.48H155.3V54.032H159.36V54.48H158.352C158.221 54.48 158.123 54.5127 158.058 54.578C158.002 54.634 157.974 54.7273 157.974 54.858V63.174C157.974 63.426 158.1 63.552 158.352 63.552H159.36V64H155.3V63.552ZM169.182 64.252C168.398 64.252 167.698 64.0047 167.082 63.51C166.466 63.0153 165.985 62.3667 165.64 61.564C165.294 60.752 165.122 59.9027 165.122 59.016C165.122 58.1293 165.294 57.2847 165.64 56.482C165.985 55.67 166.466 55.0167 167.082 54.522C167.698 54.0273 168.398 53.78 169.182 53.78C169.966 53.78 170.666 54.0273 171.282 54.522C171.898 55.0167 172.378 55.67 172.724 56.482C173.069 57.2847 173.242 58.1293 173.242 59.016C173.242 59.9027 173.069 60.752 172.724 61.564C172.378 62.3667 171.898 63.0153 171.282 63.51C170.666 64.0047 169.966 64.252 169.182 64.252ZM169.182 63.804C170.096 63.804 170.754 63.3887 171.156 62.558C171.557 61.718 171.758 60.5373 171.758 59.016C171.758 57.4853 171.557 56.3047 171.156 55.474C170.754 54.6433 170.096 54.228 169.182 54.228C168.267 54.228 167.609 54.6433 167.208 55.474C166.806 56.3047 166.606 57.4853 166.606 59.016C166.606 60.5373 166.806 61.718 167.208 62.558C167.609 63.3887 168.267 63.804 169.182 63.804ZM181.014 55.558H180.958V62.432C180.958 62.7773 181.038 63.0527 181.196 63.258C181.364 63.454 181.579 63.552 181.84 63.552H182.344V64H179.012V63.552H179.516C179.787 63.552 180.002 63.454 180.16 63.258C180.319 63.0527 180.398 62.7773 180.398 62.432V54.858C180.389 54.7273 180.356 54.634 180.3 54.578C180.244 54.5127 180.151 54.48 180.02 54.48H179.012V54.032H181.658L186.516 61.844V55.6C186.516 55.2547 186.437 54.984 186.278 54.788C186.12 54.5827 185.91 54.48 185.648 54.48H185.144V54.032H188.476V54.48H187.972C187.711 54.48 187.496 54.5827 187.328 54.788C187.16 54.984 187.076 55.2547 187.076 55.6V64.252H186.516L181.014 55.558ZM202.11 63.552H203.118C203.37 63.552 203.496 63.426 203.496 63.174V54.858C203.496 54.7273 203.463 54.634 203.398 54.578C203.342 54.5127 203.248 54.48 203.118 54.48H202.11V54.032H209.922L209.978 57.532H209.628C209.628 57.3453 209.586 57.028 209.502 56.58C209.427 56.132 209.273 55.7307 209.04 55.376C208.648 54.7787 208.097 54.48 207.388 54.48H205.162C205.031 54.48 204.933 54.5127 204.868 54.578C204.812 54.634 204.784 54.7273 204.784 54.858V58.624H205.862C206.338 58.624 206.678 58.3813 206.884 57.896C207.098 57.4107 207.206 56.8927 207.206 56.342H207.57V61.354H207.206C207.206 60.8033 207.098 60.2853 206.884 59.8C206.678 59.3147 206.338 59.072 205.862 59.072H204.784V63.174C204.784 63.426 204.91 63.552 205.162 63.552H207.402C207.672 63.552 207.948 63.4913 208.228 63.37C208.508 63.2487 208.746 63.062 208.942 62.81C209.128 62.5487 209.282 62.222 209.404 61.83C209.525 61.438 209.609 61.0833 209.656 60.766C209.702 60.4393 209.73 60.2293 209.74 60.136H210.09L209.922 64H202.11V63.552ZM215.752 63.552H216.186C216.494 63.552 216.75 63.4727 216.956 63.314C217.17 63.146 217.376 62.9127 217.572 62.614L219.938 59.072L217.852 55.208C217.712 54.9467 217.567 54.76 217.418 54.648C217.278 54.536 217.054 54.48 216.746 54.48H215.892V54.032H220.232V54.48H219.392C219.224 54.48 219.14 54.55 219.14 54.69C219.14 54.746 219.149 54.8067 219.168 54.872C219.186 54.9373 219.214 54.998 219.252 55.054L220.764 57.854L222.094 55.866C222.28 55.586 222.374 55.32 222.374 55.068C222.374 54.9093 222.308 54.774 222.178 54.662C222.056 54.5407 221.893 54.48 221.688 54.48H221.254V54.032H225.034V54.48H224.404C224.124 54.48 223.886 54.536 223.69 54.648C223.503 54.7507 223.33 54.9233 223.172 55.166L221.03 58.386L223.508 62.936C223.638 63.1693 223.769 63.3327 223.9 63.426C224.03 63.51 224.189 63.552 224.376 63.552H225.244V64H220.904V63.552H221.744C221.874 63.552 221.968 63.524 222.024 63.468C222.089 63.412 222.122 63.342 222.122 63.258C222.122 63.202 222.112 63.1413 222.094 63.076C222.075 63.0107 222.052 62.9547 222.024 62.908L220.232 59.604L218.622 62.054C218.388 62.4087 218.272 62.7027 218.272 62.936C218.272 63.104 218.314 63.2487 218.398 63.37C218.482 63.4913 218.608 63.552 218.776 63.552H219.532V64H215.752V63.552ZM230.676 63.552H231.684C231.936 63.552 232.062 63.426 232.062 63.174V54.858C232.062 54.7273 232.029 54.634 231.964 54.578C231.908 54.5127 231.814 54.48 231.684 54.48H230.676V54.032H235.352C236.005 54.032 236.584 54.144 237.088 54.368C237.601 54.5827 237.998 54.8907 238.278 55.292C238.567 55.684 238.712 56.132 238.712 56.636C238.712 57.1493 238.567 57.6067 238.278 58.008C237.998 58.4093 237.601 58.7267 237.088 58.96C236.584 59.184 236.005 59.296 235.352 59.296H233.35V63.174C233.35 63.3047 233.378 63.4027 233.434 63.468C233.49 63.524 233.588 63.552 233.728 63.552H234.96V64H230.676V63.552ZM235.534 58.848C236.038 58.848 236.444 58.6333 236.752 58.204C237.069 57.7653 237.228 57.2427 237.228 56.636C237.228 56.0293 237.074 55.5207 236.766 55.11C236.458 54.69 236.047 54.48 235.534 54.48H233.728C233.597 54.48 233.499 54.5127 233.434 54.578C233.378 54.634 233.35 54.7273 233.35 54.858V58.848H235.534ZM251.643 64.168C251.335 64.168 251.074 64.1167 250.859 64.014C250.654 63.9113 250.491 63.7433 250.369 63.51C250.117 63.0247 249.982 62.1987 249.963 61.032C249.954 60.4067 249.842 59.8887 249.627 59.478C249.413 59.058 249.067 58.848 248.591 58.848H247.065V63.174C247.065 63.3047 247.093 63.4027 247.149 63.468C247.205 63.524 247.303 63.552 247.443 63.552H248.689V64H244.391V63.552H245.399C245.651 63.552 245.777 63.426 245.777 63.174V54.858C245.777 54.7273 245.745 54.634 245.679 54.578C245.623 54.5127 245.53 54.48 245.399 54.48H244.391V54.032H248.983C249.889 54.032 250.631 54.2047 251.209 54.55C251.788 54.8953 252.077 55.4693 252.077 56.272C252.077 56.9627 251.816 57.518 251.293 57.938C250.78 58.358 250.159 58.6053 249.431 58.68V58.736C249.963 58.8387 250.397 59.086 250.733 59.478C251.079 59.8607 251.307 60.5187 251.419 61.452C251.485 61.984 251.541 62.3713 251.587 62.614C251.643 62.8567 251.709 63.0293 251.783 63.132C251.867 63.2253 251.989 63.272 252.147 63.272C252.549 63.272 252.749 62.768 252.749 61.76H253.099C253.099 62.3667 253.011 62.922 252.833 63.426C252.656 63.9207 252.259 64.168 251.643 64.168ZM248.423 58.4C249.207 58.4 249.763 58.2133 250.089 57.84C250.425 57.4573 250.593 56.9347 250.593 56.272C250.593 55.7027 250.439 55.264 250.131 54.956C249.833 54.6387 249.422 54.48 248.899 54.48H247.443C247.313 54.48 247.215 54.5127 247.149 54.578C247.093 54.634 247.065 54.7273 247.065 54.858V58.4H248.423ZM258.613 63.552H259.621C259.873 63.552 259.999 63.426 259.999 63.174V54.858C259.999 54.7273 259.966 54.634 259.901 54.578C259.845 54.5127 259.751 54.48 259.621 54.48H258.613V54.032H266.425L266.481 57.532H266.131C266.131 57.3453 266.089 57.028 266.005 56.58C265.93 56.132 265.776 55.7307 265.543 55.376C265.151 54.7787 264.6 54.48 263.891 54.48H261.665C261.534 54.48 261.436 54.5127 261.371 54.578C261.315 54.634 261.287 54.7273 261.287 54.858V58.624H262.365C262.841 58.624 263.181 58.3813 263.387 57.896C263.601 57.4107 263.709 56.8927 263.709 56.342H264.073V61.354H263.709C263.709 60.8033 263.601 60.2853 263.387 59.8C263.181 59.3147 262.841 59.072 262.365 59.072H261.287V63.174C261.287 63.426 261.413 63.552 261.665 63.552H263.905C264.175 63.552 264.451 63.4913 264.731 63.37C265.011 63.2487 265.249 63.062 265.445 62.81C265.631 62.5487 265.785 62.222 265.907 61.83C266.028 61.438 266.112 61.0833 266.159 60.766C266.205 60.4393 266.233 60.2293 266.243 60.136H266.593L266.425 64H258.613V63.552ZM276.525 64.252C276.133 64.252 275.745 64.168 275.363 64C274.989 63.8227 274.663 63.6313 274.383 63.426C273.991 63.1273 273.757 62.978 273.683 62.978C273.496 62.978 273.375 63.1787 273.319 63.58L273.263 64.14H272.941L272.843 59.716H273.179C273.235 60.4067 273.426 61.0693 273.753 61.704C274.089 62.3293 274.504 62.838 274.999 63.23C275.493 63.6127 276.002 63.804 276.525 63.804C277.29 63.804 277.845 63.6173 278.191 63.244C278.545 62.8707 278.723 62.4227 278.723 61.9C278.723 61.4427 278.587 61.0833 278.317 60.822C278.055 60.5607 277.668 60.3273 277.155 60.122L275.027 59.268C274.289 58.9693 273.743 58.5867 273.389 58.12C273.043 57.644 272.871 57.0747 272.871 56.412C272.871 55.516 273.132 54.8533 273.655 54.424C274.177 53.9947 274.831 53.78 275.615 53.78C276.231 53.78 276.912 54.06 277.659 54.62C277.752 54.6853 277.845 54.746 277.939 54.802C278.032 54.8487 278.116 54.872 278.191 54.872C278.349 54.872 278.443 54.76 278.471 54.536L278.527 54.032H278.863L279.003 57.672H278.667C278.517 57 278.279 56.4027 277.953 55.88C277.635 55.3573 277.262 54.9513 276.833 54.662C276.403 54.3727 275.96 54.228 275.503 54.228C274.98 54.228 274.551 54.4007 274.215 54.746C273.879 55.082 273.711 55.5533 273.711 56.16C273.711 56.58 273.818 56.9067 274.033 57.14C274.247 57.3733 274.565 57.574 274.985 57.742L277.687 58.82C278.312 59.072 278.779 59.4313 279.087 59.898C279.404 60.3647 279.563 60.8547 279.563 61.368C279.563 61.8627 279.451 62.3293 279.227 62.768C279.012 63.2067 278.676 63.566 278.219 63.846C277.771 64.1167 277.206 64.252 276.525 64.252ZM289.406 64.252C289.014 64.252 288.627 64.168 288.244 64C287.871 63.8227 287.544 63.6313 287.264 63.426C286.872 63.1273 286.639 62.978 286.564 62.978C286.378 62.978 286.256 63.1787 286.2 63.58L286.144 64.14H285.822L285.724 59.716H286.06C286.116 60.4067 286.308 61.0693 286.634 61.704C286.97 62.3293 287.386 62.838 287.88 63.23C288.375 63.6127 288.884 63.804 289.406 63.804C290.172 63.804 290.727 63.6173 291.072 63.244C291.427 62.8707 291.604 62.4227 291.604 61.9C291.604 61.4427 291.469 61.0833 291.198 60.822C290.937 60.5607 290.55 60.3273 290.036 60.122L287.908 59.268C287.171 58.9693 286.625 58.5867 286.27 58.12C285.925 57.644 285.752 57.0747 285.752 56.412C285.752 55.516 286.014 54.8533 286.536 54.424C287.059 53.9947 287.712 53.78 288.496 53.78C289.112 53.78 289.794 54.06 290.54 54.62C290.634 54.6853 290.727 54.746 290.82 54.802C290.914 54.8487 290.998 54.872 291.072 54.872C291.231 54.872 291.324 54.76 291.352 54.536L291.408 54.032H291.744L291.884 57.672H291.548C291.399 57 291.161 56.4027 290.834 55.88C290.517 55.3573 290.144 54.9513 289.714 54.662C289.285 54.3727 288.842 54.228 288.384 54.228C287.862 54.228 287.432 54.4007 287.096 54.746C286.76 55.082 286.592 55.5533 286.592 56.16C286.592 56.58 286.7 56.9067 286.914 57.14C287.129 57.3733 287.446 57.574 287.866 57.742L290.568 58.82C291.194 59.072 291.66 59.4313 291.968 59.898C292.286 60.3647 292.444 60.8547 292.444 61.368C292.444 61.8627 292.332 62.3293 292.108 62.768C291.894 63.2067 291.558 63.566 291.1 63.846C290.652 64.1167 290.088 64.252 289.406 64.252Z" fill="url(#paint1_linear_579_3976)"/>
</g>
<defs>
<filter id="filter0_d_579_3976" x="54.8153" y="5.38639" width="301.005" height="43.5153" filterUnits="userSpaceOnUse" color-interpolation-filters="sRGB">
<feFlood flood-opacity="0" result="BackgroundImageFix"/>
<feColorMatrix in="SourceAlpha" type="matrix" values="0 0 0 0 0 0 0 0 0 0 0 0 0 0 0 0 0 0 127 0" result="hardAlpha"/>
<feOffset/>
<feGaussianBlur stdDeviation="2.16667"/>
<feComposite in2="hardAlpha" operator="out"/>
<feColorMatrix type="matrix" values="0 0 0 0 0 0 0 0 0 0 0 0 0 0 0 0 0 0 1 0"/>
<feBlend mode="normal" in2="BackgroundImageFix" result="effect1_dropShadow_579_3976"/>
<feBlend mode="normal" in="SourceGraphic" in2="effect1_dropShadow_579_3976" result="shape"/>
</filter>
<filter id="filter1_d_579_3976" x="114.442" y="50.7803" width="181.002" height="16.4717" filterUnits="userSpaceOnUse" color-interpolation-filters="sRGB">
<feFlood flood-opacity="0" result="BackgroundImageFix"/>
<feColorMatrix in="SourceAlpha" type="matrix" values="0 0 0 0 0 0 0 0 0 0 0 0 0 0 0 0 0 0 127 0" result="hardAlpha"/>
<feOffset/>
<feGaussianBlur stdDeviation="1.5"/>
<feComposite in2="hardAlpha" operator="out"/>
<feColorMatrix type="matrix" values="0 0 0 0 0 0 0 0 0 0 0 0 0 0 0 0 0 0 1 0"/>
<feBlend mode="normal" in2="BackgroundImageFix" result="effect1_dropShadow_579_3976"/>
<feBlend mode="normal" in="SourceGraphic" in2="effect1_dropShadow_579_3976" result="shape"/>
</filter>
<linearGradient id="paint0_linear_579_3976" x1="205" y1="0" x2="205" y2="54" gradientUnits="userSpaceOnUse">
<stop stop-color="white"/>
<stop offset="1" stop-color="#F7DDA5"/>
</linearGradient>
<linearGradient id="paint1_linear_579_3976" x1="205" y1="55.25" x2="205" y2="67.7917" gradientUnits="userSpaceOnUse">
<stop stop-color="#FFFEF2"/>
<stop offset="1" stop-color="#D9C2A0"/>
</linearGradient>
</defs>
</svg>
